<svg width="0" height="0" class="hidden">
  <symbol xmlns="http://www.w3.org/2000/svg" viewBox="0 0 486.392 486.392" id="facebook">
    <path d="M243.196 0C108.891 0 0 108.891 0 243.196s108.891 243.196 243.196 243.196 243.196-108.891 243.196-243.196C486.392 108.861 377.501 0 243.196 0zm62.866 243.165l-39.854.03-.03 145.917h-54.689V243.196H175.01v-50.281l36.479-.03-.061-29.609c0-41.039 11.126-65.997 59.431-65.997h40.249v50.311h-25.171c-18.817 0-19.729 7.022-19.729 20.124l-.061 25.171h45.234l-5.319 50.28z"
      fill="#010002"></path>
  </symbol>
  <symbol xmlns="http://www.w3.org/2000/svg" viewBox="0 0 96 96" id="github">
    <path d="M48.07 47.746l-.07-.002a1.782 1.782 0 0 1-.071.002c-5.957 0-11.206-1.508-14.308 1.34-1.859 1.709-2.642 3.768-2.642 5.985 0 9.261 7.42 10.398 16.949 10.398h.142c9.529 0 16.949-1.138 16.949-10.398 0-2.218-.783-4.276-2.642-5.985-3.102-2.848-8.35-1.34-14.307-1.34zm-8.102 12.655c-1.813 0-3.283-2.036-3.283-4.547s1.47-4.546 3.283-4.546 3.285 2.035 3.285 4.546-1.472 4.547-3.285 4.547zm16.063 0c-1.814 0-3.285-2.036-3.285-4.547s1.471-4.546 3.285-4.546c1.812 0 3.283 2.035 3.283 4.546s-1.47 4.547-3.283 4.547zM48 0C21.489 0 0 21.49 0 48s21.489 48 48 48c26.509 0 48-21.49 48-48S74.509 0 48 0zm4.378 67.701L48 67.705l-4.379-.004c-3.803 0-18.863-.291-18.863-18.445 0-4.177 1.432-7.233 3.775-9.778-.374-.923-.393-6.165 1.602-11.183 0 0 4.576.502 11.5 5.253 1.451-.401 3.908-.601 6.365-.601 2.455 0 4.912.199 6.365.601 6.923-4.751 11.498-5.253 11.498-5.253 1.995 5.018 1.977 10.26 1.603 11.183 2.344 2.545 3.776 5.602 3.776 9.778 0 18.154-15.061 18.445-18.864 18.445z"
      fill="#030104"></path>
  </symbol>
  <symbol xmlns="http://www.w3.org/2000/svg" viewBox="0 0 49.652 49.652" id="twitter">
    <path d="M24.826 0C11.137 0 0 11.137 0 24.826c0 13.688 11.137 24.826 24.826 24.826 13.688 0 24.826-11.138 24.826-24.826C49.652 11.137 38.516 0 24.826 0zm11.075 19.144c.011.246.017.494.017.742 0 7.551-5.746 16.255-16.259 16.255-3.227 0-6.231-.943-8.759-2.565.447.053.902.08 1.363.08 2.678 0 5.141-.914 7.097-2.446a5.72 5.72 0 0 1-5.338-3.969 5.76 5.76 0 0 0 2.58-.096 5.715 5.715 0 0 1-4.583-5.603l.001-.072a5.69 5.69 0 0 0 2.587.714 5.71 5.71 0 0 1-2.541-4.755c0-1.048.281-2.03.773-2.874a16.225 16.225 0 0 0 11.777 5.972 5.707 5.707 0 0 1-.147-1.303 5.714 5.714 0 0 1 9.884-3.91 11.406 11.406 0 0 0 3.63-1.387 5.74 5.74 0 0 1-2.516 3.162 11.36 11.36 0 0 0 3.282-.899 11.494 11.494 0 0 1-2.848 2.954z"></path>
  </symbol>
</svg>